<svg xmlns="http://www.w3.org/2000/svg" viewBox="0 0 64 64">
  <defs>
    <linearGradient id="gold" x1="8" y1="6" x2="56" y2="58" gradientUnits="userSpaceOnUse">
      <stop stop-color="#f8d86e"/>
      <stop offset="1" stop-color="#e7ad2e"/>
    </linearGradient>
  </defs>
  <rect x="3" y="3" width="58" height="58" rx="16" fill="url(#gold)"/>
  <path d="M36.5 15v27.1c0 5.2-4.3 9.4-9.7 9.4-4.8 0-8.3-3-8.3-7.1 0-4.5 4.1-8 9.3-8 2 0 3.8.5 5.2 1.4V18.2l14-3.2v5.1l-10.5 2.4" fill="#1d1a13"/>
  <path d="M33 38.2c-1.4-.9-3.2-1.4-5.2-1.4-5.2 0-9.3 3.5-9.3 8 0 4.1 3.5 7.1 8.3 7.1 5.4 0 9.7-4.2 9.7-9.4V22.9L47 20.5V15l-14 3.2z" fill="none" stroke="#1d1a13" stroke-width="2.1" stroke-linejoin="round"/>
</svg>
